<svg width="147" height="30" fill="none" xmlns="http://www.w3.org/2000/svg"><path d="M0 2.113h2.932l6.41 20.497h.816l6.41-20.497h2.931l-6.71 21.313H6.71L0 2.113zm19.263 13.755c0-2.277.746-4.142 2.237-5.593 1.492-1.471 3.437-2.207 5.835-2.207 2.378 0 4.313.736 5.805 2.207 1.491 1.451 2.237 3.316 2.237 5.593 0 2.298-.746 4.182-2.237 5.653-1.492 1.472-3.427 2.207-5.805 2.207-2.398 0-4.343-.725-5.835-2.176-1.49-1.472-2.237-3.366-2.237-5.684zm2.933 0c0 1.572.453 2.852 1.36 3.84.907.987 2.167 1.48 3.78 1.48 1.591 0 2.831-.493 3.718-1.48.907-.988 1.36-2.268 1.36-3.84 0-1.552-.453-2.812-1.36-3.779-.887-.988-2.127-1.481-3.719-1.481-1.612 0-2.872.493-3.779 1.481-.907.967-1.36 2.227-1.36 3.779zm14.627 7.558v-2.54h4.202V3.474l-3.205.272v-2.54l3.96-.271c1.452-.121 2.177.594 2.177 2.146v17.807h4.233v2.539H36.823zm17.788-2.207l5.381-.332v2.539l-6.137.302c-.725.04-1.27-.12-1.633-.483-.362-.383-.544-.948-.544-1.693V10.91h-3.355V8.37h3.355V4.683l2.933-.907v4.596h4.776v2.539h-4.776v10.31z" fill="#fff"/><mask id="a" style="mask-type:alpha" maskUnits="userSpaceOnUse" x="83" y="8" width="17" height="16"><path d="M83.237 15.94c0-2.276.745-4.14 2.237-5.592 1.491-1.471 3.436-2.207 5.834-2.207 2.379 0 4.314.736 5.805 2.207 1.492 1.451 2.237 3.316 2.237 5.593 0 2.298-.745 4.182-2.237 5.653-1.491 1.471-3.426 2.207-5.805 2.207-2.398 0-4.343-.725-5.834-2.176-1.492-1.472-2.237-3.366-2.237-5.684zm2.932 0c0 1.573.454 2.853 1.36 3.84.907.988 2.167 1.482 3.78 1.482 1.592 0 2.831-.494 3.718-1.482.907-.987 1.36-2.267 1.36-3.84 0-1.55-.453-2.81-1.36-3.778-.887-.988-2.126-1.481-3.719-1.481-1.612 0-2.872.493-3.778 1.481-.907.967-1.36 2.227-1.36 3.779z" fill="#fff"/></mask><g mask="url(#a)"><path d="M118.798-1.237H91.315v37.103h27.483V-1.237z" fill="#fff"/></g><mask id="b" style="mask-type:alpha" maskUnits="userSpaceOnUse" x="62" y="8" width="17" height="16"><path d="M78.946 16.001c0 2.278-.746 4.142-2.237 5.593-1.492 1.472-3.437 2.207-5.835 2.207-2.378 0-4.313-.735-5.804-2.207-1.492-1.45-2.238-3.315-2.238-5.593 0-2.297.746-4.182 2.238-5.653 1.49-1.471 3.426-2.207 5.804-2.207 2.398 0 4.343.726 5.835 2.177 1.491 1.471 2.237 3.366 2.237 5.683zm-2.933 0c0-1.572-.453-2.852-1.36-3.84-.907-.987-2.167-1.48-3.78-1.48-1.591 0-2.83.493-3.718 1.48-.906.989-1.36 2.268-1.36 3.84 0 1.552.454 2.812 1.36 3.78.887.987 2.127 1.48 3.719 1.48 1.612 0 2.872-.493 3.779-1.48.907-.968 1.36-2.228 1.36-3.78z" fill="#fff"/></mask><g mask="url(#b)"><path d="M43.384 33.178h27.484V-3.924H43.384v37.102z" fill="#fff"/></g><path d="M91.314 8.142H70.702v2.542h20.612V8.142zm0 13.123H70.702v2.542h20.612v-2.542zM118.751 8.37h1.331v2.54h-1.239c-.747 0-1.361.171-1.845.514.605.766.908 1.733.908 2.902 0 1.512-.596 2.802-1.784 3.87-1.169 1.068-2.913 2.025-5.23 2.872a18.256 18.256 0 013.295-.06c1.028.06 1.874.393 2.539.997.665.585.998 1.401.998 2.449 0 .685-.121 1.27-.362 1.753-.223.504-.616.927-1.18 1.27a7.136 7.136 0 01-1.905.816c-.705.222-1.662.383-2.872.484a52.952 52.952 0 01-3.658.242c-1.249.04-2.811.06-4.686.06V26.54c4.717 0 7.841-.141 9.372-.423 1.553-.282 2.328-.948 2.328-1.996 0-2.257-3.436-2.458-10.309-.604l-.514-1.905a142.49 142.49 0 007.589-1.935v-.816c-2.62.726-4.868.685-6.743-.12-1.854-.827-2.78-2.369-2.78-4.626 0-1.975.725-3.477 2.176-4.505 1.471-1.028 3.366-1.542 5.683-1.542 2.117 0 3.881.484 5.291 1.451.686-.483 1.27-.796 1.754-.937.504-.14 1.118-.211 1.843-.211zm-13.815 5.835c0 2.44 1.673 3.658 5.019 3.658 3.345 0 5.018-1.219 5.018-3.658 0-2.398-1.673-3.597-5.018-3.597-3.346 0-5.019 1.199-5.019 3.597zm16.701 1.482c0-2.378.675-4.243 2.025-5.593 1.37-1.35 3.164-2.026 5.382-2.026 2.196 0 3.95.655 5.26 1.965 1.309 1.29 1.964 3.074 1.964 5.351v1.089h-11.79c.061 1.43.484 2.59 1.27 3.477.806.886 2.036 1.33 3.689 1.33 2.418 0 3.889-1.048 4.413-3.144h2.933c-.303 1.45-1.059 2.75-2.268 3.9-1.189 1.128-2.882 1.692-5.078 1.692-2.601 0-4.555-.755-5.866-2.267-1.29-1.511-1.934-3.436-1.934-5.774zm2.841-1.27h8.949c0-1.129-.383-2.066-1.149-2.812-.746-.745-1.824-1.118-3.234-1.118-1.411 0-2.531.383-3.356 1.149-.806.745-1.21 1.673-1.21 2.781z" fill="#fff"/><path d="M145.294 22.942c-.504.524-1.139.787-1.905.787s-1.401-.252-1.904-.756c-.484-.524-.726-1.17-.726-1.935 0-.746.242-1.37.726-1.875.503-.523 1.138-.786 1.904-.786.746 0 1.381.263 1.905.787.524.503.786 1.128.786 1.874 0 .746-.262 1.38-.786 1.904z" fill="#70FF4D"/></svg>