<svg viewBox="0 0 24 24"  xmlns="http://www.w3.org/2000/svg" style="display:none">

	<symbol viewBox="0 0 58 39" id="decor-arrow-next">
		<path d="M32.8948 1.16403C32.8976 8.52067 38.2147 14.9103 45.9781 18.0542L1.12494 18.071C0.551508 18.0712 0.0761616 18.5469 0.0763758 19.1203C0.07659 19.6938 0.552292 20.1691 1.12572 20.1689L45.9789 20.1521C38.2318 23.3159 32.9055 29.6955 32.9083 37.0521C32.9085 37.6256 33.3842 38.1009 33.9576 38.1007C34.531 38.1005 35.0064 37.6248 35.0062 37.0514C35.0027 27.7367 44.832 20.1526 56.9159 20.1481C57.4894 20.1478 57.9647 19.6861 57.9645 19.0987C57.9643 18.5113 57.4886 18.0499 56.9151 18.0502C44.8312 18.0547 34.9962 10.4779 34.9928 1.16324C34.9925 0.589816 34.5308 0.114464 33.9434 0.114683C33.356 0.114903 32.8946 0.5906 32.8948 1.16403Z"/>
	</symbol>

	<symbol viewBox="0 0 22 20" id="arrow-slider-prev">
		<path fill-rule="evenodd" clip-rule="evenodd" d="M13.5919 3.04297L6.41043 9.99999L13.5919 16.957L14.2877 16.2388L7.84763 9.99999L14.2877 3.76121L13.5919 3.04297Z"/>
	</symbol>

	<symbol viewBox="0 0 22 20" id="arrow-slider-next">
		<path fill-rule="evenodd" clip-rule="evenodd" d="M8.40814 3.04297L15.5896 9.99999L8.40814 16.957L7.71234 16.2388L14.1524 9.99999L7.71234 3.76121L8.40814 3.04297Z"/>
	</symbol>

	<symbol viewBox="0 0 15 16" id="close">
		<path d="M1.28247 1.14648L14.7175 14.5815L14.0104 15.2886L0.575364 1.85359L1.28247 1.14648Z"/>
		<path d="M0.282471 14.1465L13.7175 0.711456L14.4246 1.41856L0.989577 14.8536L0.282471 14.1465Z"/>
	</symbol>
		
</svg>