<svg width="147" height="30" viewBox="0 0 147 30" fill="none" xmlns="http://www.w3.org/2000/svg">
<path d="M0 2.11256H2.93249L9.34161 22.6098H10.1579L16.5671 2.11256H19.4995L12.7881 23.426H6.71147L0 2.11256ZM19.2633 15.868C19.2633 13.5906 20.0091 11.7263 21.5005 10.2752C22.992 8.80388 24.9369 8.06824 27.3352 8.06824C29.7135 8.06824 31.6483 8.80388 33.1398 10.2752C34.6312 11.7263 35.377 13.5906 35.377 15.868C35.377 18.1657 34.6312 20.0502 33.1398 21.5214C31.6483 22.9927 29.7135 23.7283 27.3352 23.7283C24.9369 23.7283 22.992 23.0028 21.5005 21.5517C20.0091 20.0804 19.2633 18.1858 19.2633 15.868ZM22.1958 15.868C22.1958 17.4401 22.6494 18.7199 23.5563 19.7075C24.4632 20.6951 25.7229 21.1888 27.3352 21.1888C28.9274 21.1888 30.167 20.6951 31.0538 19.7075C31.9608 18.7199 32.4142 17.4401 32.4142 15.868C32.4142 14.3162 31.9608 13.0565 31.0538 12.0891C30.167 11.1015 28.9274 10.6077 27.3352 10.6077C25.7229 10.6077 24.4632 11.1015 23.5563 12.0891C22.6494 13.0565 22.1958 14.3162 22.1958 15.868ZM36.8227 23.426V20.8866H41.0248V3.47299L37.8202 3.74508V1.20561L41.7806 0.933523C43.2318 0.812595 43.9573 1.52808 43.9573 3.07999V20.8866H48.1898V23.426H36.8227ZM54.6108 21.2191L59.9921 20.8866V23.426L53.855 23.7283C53.1295 23.7686 52.5853 23.6074 52.2224 23.2446C51.8597 22.8617 51.6782 22.2973 51.6782 21.5517V10.91H48.3225V8.37056H51.6782V4.68227L54.6108 3.77532V8.37056H59.3874V10.91H54.6108V21.2191Z" fill="white"/>
<mask id="mask0_160_454" style="mask-type:alpha" maskUnits="userSpaceOnUse" x="83" y="8" width="17" height="16">
<path d="M83.2366 15.9409C83.2366 13.6635 83.9824 11.7992 85.4738 10.348C86.9652 8.87676 88.9101 8.14111 91.3085 8.14111C93.6868 8.14111 95.622 8.87676 97.1134 10.348C98.6049 11.7992 99.3501 13.6635 99.3501 15.9409C99.3501 18.2386 98.6049 20.123 97.1134 21.5943C95.622 23.0655 93.6868 23.8012 91.3085 23.8012C88.9101 23.8012 86.9652 23.0757 85.4738 21.6245C83.9824 20.1533 83.2366 18.2587 83.2366 15.9409ZM86.1691 15.9409C86.1691 17.513 86.6225 18.7928 87.5296 19.7803C88.4365 20.768 89.6961 21.2617 91.3085 21.2617C92.9007 21.2617 94.14 20.768 95.0267 19.7803C95.9343 18.7928 96.3872 17.513 96.3872 15.9409C96.3872 14.3891 95.9343 13.1294 95.0267 12.162C94.14 11.1743 92.9007 10.6806 91.3085 10.6806C89.6961 10.6806 88.4365 11.1743 87.5296 12.162C86.6225 13.1294 86.1691 14.3891 86.1691 15.9409Z" fill="white"/>
</mask>
<g mask="url(#mask0_160_454)">
<path d="M118.798 -1.23682H91.3146V35.8659H118.798V-1.23682Z" fill="white"/>
</g>
<mask id="mask1_160_454" style="mask-type:alpha" maskUnits="userSpaceOnUse" x="62" y="8" width="17" height="16">
<path d="M78.9459 16.0014C78.9459 18.2789 78.2002 20.1432 76.7088 21.5943C75.2173 23.0656 73.2724 23.8012 70.8739 23.8012C68.4958 23.8012 66.5609 23.0656 65.0695 21.5943C63.5781 20.1432 62.8323 18.2789 62.8323 16.0014C62.8323 13.7038 63.5781 11.8193 65.0695 10.348C66.5609 8.87676 68.4958 8.14111 70.8739 8.14111C73.2724 8.14111 75.2173 8.86668 76.7088 10.3178C78.2002 11.7891 78.9459 13.6836 78.9459 16.0014ZM76.0134 16.0014C76.0134 14.4293 75.5599 13.1495 74.653 12.1619C73.746 11.1744 72.4864 10.6806 70.8739 10.6806C69.2818 10.6806 68.0423 11.1744 67.1555 12.1619C66.2485 13.1495 65.795 14.4293 65.795 16.0014C65.795 17.5533 66.2485 18.8129 67.1555 19.7803C68.0423 20.768 69.2818 21.2617 70.8739 21.2617C72.4864 21.2617 73.746 20.768 74.653 19.7803C75.5599 18.8129 76.0134 17.5533 76.0134 16.0014Z" fill="white"/>
</mask>
<g mask="url(#mask1_160_454)">
<path d="M43.3841 33.1782H70.8676V-3.92446H43.3841V33.1782Z" fill="white"/>
</g>
<path d="M91.3141 8.1416H70.7015V10.6838H91.3141V8.1416Z" fill="white"/>
<path d="M91.3141 21.2646H70.7015V23.8069H91.3141V21.2646Z" fill="white"/>
<path d="M118.751 8.37068H120.082V10.9102H118.843C118.096 10.9102 117.482 11.0814 116.998 11.424C117.603 12.19 117.906 13.1574 117.906 14.3264C117.906 15.8379 117.31 17.1278 116.122 18.196C114.953 19.2642 113.209 20.2215 110.892 21.0681C112.08 20.9471 113.179 20.9269 114.187 21.0076C115.215 21.0681 116.061 21.4006 116.726 22.0052C117.391 22.5897 117.724 23.406 117.724 24.454C117.724 25.1393 117.603 25.7238 117.362 26.2075C117.139 26.7113 116.746 27.1345 116.182 27.4772C115.638 27.8198 115.003 28.0919 114.277 28.2934C113.572 28.5151 112.615 28.6764 111.405 28.7771C110.217 28.8981 108.997 28.9787 107.747 29.019C106.498 29.0593 104.936 29.0795 103.061 29.0795V26.5401C107.778 26.5401 110.902 26.3989 112.433 26.1167C113.986 25.8346 114.761 25.1695 114.761 24.1214C114.761 21.8641 111.325 21.6626 104.452 23.5168L103.938 21.6122C106.679 20.9874 109.208 20.3425 111.527 19.6774V18.8611C108.907 19.5867 106.659 19.5464 104.784 18.7402C102.93 17.9138 102.004 16.3721 102.004 14.1147C102.004 12.1396 102.729 10.6381 104.18 9.61018C105.651 8.5823 107.546 8.06836 109.863 8.06836C111.98 8.06836 113.744 8.55206 115.154 9.51949C115.84 9.03577 116.424 8.72337 116.908 8.5823C117.412 8.44121 118.026 8.37068 118.751 8.37068ZM104.936 14.2054C104.936 16.6441 106.609 17.8635 109.955 17.8635C113.3 17.8635 114.973 16.6441 114.973 14.2054C114.973 11.807 113.3 10.6078 109.955 10.6078C106.609 10.6078 104.936 11.807 104.936 14.2054ZM121.637 15.6868C121.637 13.3085 122.312 11.4443 123.662 10.0939C125.032 8.74353 126.826 8.06836 129.044 8.06836C131.24 8.06836 132.994 8.72338 134.304 10.0334C135.613 11.3233 136.268 13.107 136.268 15.3844V16.4728H124.478C124.539 17.9038 124.962 19.0627 125.748 19.9495C126.554 20.8363 127.784 21.2797 129.437 21.2797C131.855 21.2797 133.326 20.2316 133.85 18.1356H136.783C136.48 19.5867 135.724 20.8867 134.515 22.0355C133.326 23.1641 131.633 23.7284 129.437 23.7284C126.836 23.7284 124.882 22.9726 123.571 21.461C122.281 19.9495 121.637 18.0247 121.637 15.6868ZM124.478 14.417H133.427C133.427 13.2884 133.044 12.3512 132.278 11.6055C131.532 10.8597 130.454 10.4869 129.044 10.4869C127.633 10.4869 126.513 10.8698 125.688 11.6358C124.882 12.3814 124.478 13.3085 124.478 14.417Z" fill="white"/>
<path d="M145.294 22.9425C144.79 23.4665 144.155 23.7285 143.389 23.7285C142.623 23.7285 141.988 23.4766 141.485 22.9727C141.001 22.4487 140.759 21.8037 140.759 21.0379C140.759 20.2921 141.001 19.6673 141.485 19.1635C141.988 18.6395 142.623 18.3774 143.389 18.3774C144.135 18.3774 144.77 18.6395 145.294 19.1635C145.818 19.6673 146.08 20.2921 146.08 21.0379C146.08 21.7836 145.818 22.4184 145.294 22.9425Z" fill="#70FF4D"/>
</svg>
